<svg id="cart_24" xmlns="http://www.w3.org/2000/svg" width="24" height="24" viewBox="0 0 24 24">
  <path d="M934.213,16.419a1.733,1.733,0,0,1,.112-.615h-6.011a1.736,1.736,0,1,1-2.342-.967L922.865,1.157H920V0h3.328a.578.578,0,0,1,.563.451l.678,2.985h14.852a.578.578,0,0,1,.528.815l-3.292,7.342a.579.579,0,0,1-.5.342l-9.562.4.524,2.307H936.2V14.7a1.736,1.736,0,1,1-1.989,1.718Zm1.157,0a.579.579,0,1,0,.579-.579A.579.579,0,0,0,935.37,16.419Zm-9.259,0a.579.579,0,1,0,.579-.579A.579.579,0,0,0,926.112,16.419Zm.22-5.227,9.417-.4,2.779-6.2H924.833Z" transform="translate(-918 3)" fill="#fff"/>
</svg>
