<svg xmlns="http://www.w3.org/2000/svg" width="180" height="24" viewBox="0 0 180 24">
    <path d="M979.341 1018.927a4.254 4.254 0 0 1-2.844-1 3.114 3.114 0 0 1-1.188-2.46v-8.55a4.106 4.106 0 0 1 1.445-3.151 5 5 0 0 1 3.471-1.3h6.909a5.024 5.024 0 0 1 3.477 1.3 4.112 4.112 0 0 1 1.446 3.15v5.447h-13.525v2.777a.773.773 0 0 0 .353.659 1.593 1.593 0 0 0 .967.276h10.756v2.851zm-.13-12.894a1.9 1.9 0 0 0-.677 1.5v1.889h10.277v-1.889a1.989 1.989 0 0 0-.678-1.516 2.4 2.4 0 0 0-1.684-.594h-5.531a2.46 2.46 0 0 0-1.706.61zm-72.411 12.894-8.9-16.464h3.693l.047.089 6.993 12.924 7.04-13.012h3.692l-8.893 16.464zm-56.425 0a4.254 4.254 0 0 1-2.849-1 3.132 3.132 0 0 1-1.191-2.46v-8.55a4.116 4.116 0 0 1 1.446-3.15 5.031 5.031 0 0 1 3.479-1.3h6.906a5 5 0 0 1 3.473 1.3 4.094 4.094 0 0 1 1.445 3.15v5.447h-13.518v2.777a.761.761 0 0 0 .352.658 1.565 1.565 0 0 0 .959.278h10.765v2.851zm-.133-12.894a1.908 1.908 0 0 0-.674 1.5v1.889h10.27v-1.889a2.012 2.012 0 0 0-.675-1.516 2.434 2.434 0 0 0-1.689-.594h-5.529a2.432 2.432 0 0 0-1.705.61zm109.666 12.893a5.024 5.024 0 0 1-3.479-1.3 4.108 4.108 0 0 1-1.447-3.151v-12.025h3.25v11.416a1.914 1.914 0 0 0 .667 1.508 2.465 2.465 0 0 0 1.69.6h5.768a2.484 2.484 0 0 0 1.7-.6 1.924 1.924 0 0 0 .66-1.508v-11.416h3.266v12.025a4.1 4.1 0 0 1-1.446 3.151 5 5 0 0 1-3.473 1.3zm-15.18 0v-24h3.23v24zm-16.593 0a5.054 5.054 0 0 1-3.5-1.3 4.1 4.1 0 0 1-1.454-3.151v-7.575a4.132 4.132 0 0 1 1.454-3.16 5.09 5.09 0 0 1 3.5-1.3h11.79v16.48zm-1.047-12.894a1.911 1.911 0 0 0-.663 1.5v6.328a1.929 1.929 0 0 0 .663 1.5 2.486 2.486 0 0 0 1.714.606h7.875v-10.545H928.8a2.455 2.455 0 0 0-1.714.611zm-36.954 12.894v-16.48h3.224v16.48zm-16.972 0a4.839 4.839 0 0 1-3.5-1.409 4.569 4.569 0 0 1-1.454-3.4v-8.179a4.61 4.61 0 0 1 1.455-3.414 4.868 4.868 0 0 1 3.5-1.4h8.537v-6.193h3.251v24zm-1.1-13.941a2.382 2.382 0 0 0-.608 1.634v6.836a2.167 2.167 0 0 0 .666 1.623 2.386 2.386 0 0 0 1.715.653h7.865v-11.394c-4.292-.028-7.225-.041-8.143-.041a1.9 1.9 0 0 0-1.5.688zm-35.11 13.941v-11.391a1.968 1.968 0 0 0-.662-1.526 2.394 2.394 0 0 0-1.682-.607h-4.398a2.535 2.535 0 0 0-1.689.588 1.765 1.765 0 0 0-.693 1.432v11.5h-3.25v-11.5a1.789 1.789 0 0 0-.661-1.442 2.537 2.537 0 0 0-1.7-.578h-4.376a2.463 2.463 0 0 0-1.7.609 1.945 1.945 0 0 0-.675 1.524c0 .253 0 1.239-.026 3.313-.023 1.72-.021 3.222.009 4.589s.029 2.489.017 3.323v.166h-3.245v-12.009a4.128 4.128 0 0 1 1.454-3.159 5.041 5.041 0 0 1 3.487-1.312h5.621a4.42 4.42 0 0 1 2.147.59 1.3 1.3 0 0 0 2.592.009 4.463 4.463 0 0 1 2.164-.6h5.6a5.006 5.006 0 0 1 3.477 1.312 4.141 4.141 0 0 1 1.449 3.159v12.009zm53.184-21.037v-2.962h3.224v2.962z" transform="translate(-812.217 -994.927)" style="opacity:.2"/>
</svg>
