<svg xmlns="http://www.w3.org/2000/svg" width="104" height="14" viewBox="0 0 104 14">
    <path d="M908.863 1008.927a2.446 2.446 0 0 1-1.644-.583 1.822 1.822 0 0 1-.687-1.435v-4.988a2.4 2.4 0 0 1 .836-1.838 2.875 2.875 0 0 1 2.007-.76h4a2.891 2.891 0 0 1 2.011.76 2.408 2.408 0 0 1 .836 1.838v3.178H908.4v1.62a.452.452 0 0 0 .2.384.916.916 0 0 0 .559.161h6.22v1.663zm-.075-7.521a1.115 1.115 0 0 0-.392.876v1.1h5.943v-1.1a1.164 1.164 0 0 0-.392-.885 1.383 1.383 0 0 0-.974-.346h-3.2a1.416 1.416 0 0 0-.985.354zm-41.876 7.521-5.147-9.6h2.135l.027.052 4.044 7.539 4.071-7.591h2.135l-5.143 9.6zm-32.63 0a2.447 2.447 0 0 1-1.648-.583 1.833 1.833 0 0 1-.689-1.435v-4.988a2.41 2.41 0 0 1 .836-1.838 2.9 2.9 0 0 1 2.012-.76h3.994a2.875 2.875 0 0 1 2.008.76 2.4 2.4 0 0 1 .836 1.838v3.178h-7.816v1.62a.445.445 0 0 0 .2.384.9.9 0 0 0 .555.162h6.23v1.663zm-.077-7.521a1.117 1.117 0 0 0-.39.876v1.1h5.939v-1.1a1.178 1.178 0 0 0-.39-.885 1.4 1.4 0 0 0-.977-.346h-3.2a1.4 1.4 0 0 0-.982.354zm63.419 7.521a2.891 2.891 0 0 1-2.012-.76 2.4 2.4 0 0 1-.837-1.838v-7.015h1.879v6.659a1.121 1.121 0 0 0 .386.88 1.418 1.418 0 0 0 .977.35h3.336a1.429 1.429 0 0 0 .984-.35 1.127 1.127 0 0 0 .382-.88v-6.659h1.889v7.015a2.4 2.4 0 0 1-.836 1.838 2.877 2.877 0 0 1-2.009.76zm-8.778 0v-14h1.868v14zm-9.6 0a2.908 2.908 0 0 1-2.027-.76 2.4 2.4 0 0 1-.841-1.838v-4.416a2.419 2.419 0 0 1 .841-1.843 2.929 2.929 0 0 1 2.027-.756h6.818v9.613zm-.606-7.521a1.119 1.119 0 0 0-.384.876v3.691a1.13 1.13 0 0 0 .384.876 1.43 1.43 0 0 0 .991.353h4.554v-6.151h-4.554a1.413 1.413 0 0 0-.987.349zm-21.37 7.521v-9.613h1.864v9.613zm-9.815 0a2.786 2.786 0 0 1-2.025-.822 2.677 2.677 0 0 1-.841-1.986v-4.771a2.7 2.7 0 0 1 .841-1.991 2.8 2.8 0 0 1 2.024-.817h4.946v-3.612h1.88v14zm-.638-8.132a1.4 1.4 0 0 0-.352.953v3.988a1.27 1.27 0 0 0 .385.947 1.373 1.373 0 0 0 .992.381h4.558v-6.646c-2.482-.016-4.178-.024-4.709-.024a1.094 1.094 0 0 0-.869.4zm-20.3 8.132v-6.645a1.152 1.152 0 0 0-.383-.89 1.377 1.377 0 0 0-.972-.354h-2.541a1.458 1.458 0 0 0-.977.343 1.033 1.033 0 0 0-.4.835v6.711h-1.879v-6.711a1.047 1.047 0 0 0-.382-.841 1.459 1.459 0 0 0-.982-.337h-2.531a1.417 1.417 0 0 0-.985.355 1.139 1.139 0 0 0-.39.889c0 .147 0 .723-.015 1.933-.013 1-.012 1.879 0 2.677s.017 1.452.01 1.938v.1h-1.877v-7.005a2.417 2.417 0 0 1 .841-1.843 2.9 2.9 0 0 1 2.017-.765h3.251a2.539 2.539 0 0 1 1.242.344.75.75 0 0 0 1.5.005 2.564 2.564 0 0 1 1.252-.349h3.241a2.88 2.88 0 0 1 2.011.765 2.425 2.425 0 0 1 .838 1.843v7.005zm30.756-12.271v-1.728h1.864v1.728z" transform="translate(-812.217 -994.927)" style="opacity:.2"/>
</svg>
