<svg xmlns="http://www.w3.org/2000/svg" width="28" height="28" viewBox="0 0 28 28">
    <path data-name="합치기 8" d="M859.734-168.518v-11.392a1.972 1.972 0 0 0-.661-1.527 2.4 2.4 0 0 0-1.683-.607H853a2.536 2.536 0 0 0-1.689.588 1.764 1.764 0 0 0-.694 1.432v11.507h-3.25v-11.507a1.787 1.787 0 0 0-.661-1.442 2.535 2.535 0 0 0-1.7-.578h-4.377a2.461 2.461 0 0 0-1.7.609 1.943 1.943 0 0 0-.675 1.525c0 .253 0 1.238-.027 3.313-.022 1.721-.02 3.222.009 4.589s.029 2.489.018 3.325v.166H835v-12.01a4.126 4.126 0 0 1 1.453-3.159 5.038 5.038 0 0 1 3.489-1.314h5.621a4.422 4.422 0 0 1 2.147.59 3.2 3.2 0 0 1 1.29 1.229 3.191 3.191 0 0 1 1.3-1.22 4.466 4.466 0 0 1 2.165-.6h5.605a5.006 5.006 0 0 1 3.479 1.313 4.139 4.139 0 0 1 1.451 3.16v12.01z" transform="translate(-835 191)" style="fill:#fff"/>
</svg>
