<svg xmlns="http://www.w3.org/2000/svg" width="158.201" height="21.111" viewBox="0 0 158.201 21.111">
  <g id="그룹_2" data-name="그룹 2" transform="translate(-42.217 -1174.927)">
    <g id="그룹_1" data-name="그룹 1" transform="translate(42.217 1180.375)">
      <path id="패스_1" data-name="패스 1" d="M52.985,1206.075a4.015,4.015,0,0,1,1.963.541,2.711,2.711,0,0,1,1.3,1.414,2.685,2.685,0,0,1,1.318-1.406,4.08,4.08,0,0,1,1.98-.55h5.326a4.577,4.577,0,0,1,3.2,1.206,3.764,3.764,0,0,1,1.324,2.883v11.254H66.612v-10.666a2.035,2.035,0,0,0-.681-1.569,2.453,2.453,0,0,0-1.707-.619H60.048a2.583,2.583,0,0,0-1.708.595,1.84,1.84,0,0,0-.717,1.484v10.775H54.855v-10.775a1.861,1.861,0,0,0-.685-1.492,2.562,2.562,0,0,0-1.718-.587H48.293a2.509,2.509,0,0,0-1.724.619,2.008,2.008,0,0,0-.7,1.569c0,.509-.006,1.564-.025,3.146s-.019,3.044.008,4.366.028,2.375.017,3.153H43.107v-11.254a3.752,3.752,0,0,1,1.329-2.883,4.612,4.612,0,0,1,3.207-1.206Z" transform="translate(-42.947 -1205.915)"/>
      <path id="패스_2" data-name="패스 2" d="M68.825,1220.849h-3.1v-10.827a1.873,1.873,0,0,0-.629-1.451,2.279,2.279,0,0,0-1.6-.576H59.318a2.409,2.409,0,0,0-1.605.558,1.676,1.676,0,0,0-.66,1.361v10.935H53.965v-10.935a1.7,1.7,0,0,0-.628-1.37,2.411,2.411,0,0,0-1.615-.549H47.563a2.338,2.338,0,0,0-1.618.578,1.848,1.848,0,0,0-.641,1.449c0,.24,0,1.177-.025,3.148-.021,1.636-.019,3.062.008,4.361s.028,2.366.017,3.159l0,.158H42.217v-11.414a3.922,3.922,0,0,1,1.382-3,4.787,4.787,0,0,1,3.314-1.247h5.342a4.2,4.2,0,0,1,2.041.561,3.04,3.04,0,0,1,1.222,1.169,3.036,3.036,0,0,1,1.241-1.16,4.246,4.246,0,0,1,2.058-.569h5.326a4.757,4.757,0,0,1,3.306,1.247,3.933,3.933,0,0,1,1.377,3Zm-2.783-.32H68.5v-11.094a3.625,3.625,0,0,0-1.272-2.765,4.448,4.448,0,0,0-3.09-1.164H58.816a3.933,3.933,0,0,0-1.9.53,2.54,2.54,0,0,0-1.245,1.32l-.151.412-.151-.412a2.562,2.562,0,0,0-1.227-1.33,3.882,3.882,0,0,0-1.885-.52H46.913a4.477,4.477,0,0,0-3.1,1.164,3.615,3.615,0,0,0-1.276,2.765v11.094h2.448c.008-.771,0-1.776-.019-2.991-.027-1.3-.029-2.732-.008-4.371.023-1.969.025-2.9.025-3.144a2.181,2.181,0,0,1,.749-1.688,2.681,2.681,0,0,1,1.831-.659h4.159a2.722,2.722,0,0,1,1.822.625,2.028,2.028,0,0,1,.741,1.614v10.615h2.447v-10.615a2,2,0,0,1,.776-1.608,2.752,2.752,0,0,1,1.81-.631h4.176a2.621,2.621,0,0,1,1.815.66,2.208,2.208,0,0,1,.734,1.688Z" transform="translate(-42.217 -1205.185)"/>
    </g>
    <g id="그룹_2-2" data-name="그룹 2" transform="translate(71.98 1180.391)">
      <path id="패스_3" data-name="패스 3" d="M219.5,1206.165a4.572,4.572,0,0,1,3.193,1.2,3.717,3.717,0,0,1,1.321,2.875v5.017H211.167v2.8a.886.886,0,0,0,.4.756,1.637,1.637,0,0,0,1,.293h10.071v2.389h-10.55a3.871,3.871,0,0,1-2.6-.912,2.806,2.806,0,0,1-1.076-2.216v-8.126a3.743,3.743,0,0,1,1.322-2.875,4.592,4.592,0,0,1,3.2-1.2Zm-7.638,3.114a1.985,1.985,0,0,0-.694,1.547v1.956h10.082v-1.956a2.074,2.074,0,0,0-.694-1.559,2.463,2.463,0,0,0-1.713-.606h-5.255A2.477,2.477,0,0,0,211.862,1209.279Z" transform="translate(-208.255 -1206.005)"/>
      <path id="패스_4" data-name="패스 4" d="M222.075,1220.922h-10.71a4.043,4.043,0,0,1-2.708-.951,2.976,2.976,0,0,1-1.132-2.338v-8.126a3.911,3.911,0,0,1,1.375-2.995,4.781,4.781,0,0,1,3.306-1.239h6.564a4.748,4.748,0,0,1,3.3,1.239,3.889,3.889,0,0,1,1.373,2.994v5.177H210.6v2.639a.726.726,0,0,0,.335.625,1.488,1.488,0,0,0,.912.264h10.231Zm-9.869-15.327a4.412,4.412,0,0,0-3.091,1.156,3.6,3.6,0,0,0-1.269,2.756v8.126a2.636,2.636,0,0,0,1.019,2.094,3.73,3.73,0,0,0,2.5.874h10.39v-2.068h-9.91a1.8,1.8,0,0,1-1.1-.325,1.037,1.037,0,0,1-.466-.884v-2.96h12.845v-4.856a3.537,3.537,0,0,0-1.267-2.756,4.437,4.437,0,0,0-3.086-1.156Zm8.474,6.616h-10.4V1210.1a2.144,2.144,0,0,1,.748-1.666,2.651,2.651,0,0,1,1.832-.659h5.255a2.623,2.623,0,0,1,1.82.647,2.246,2.246,0,0,1,.746,1.675Zm-10.082-.321h9.761v-1.8a1.91,1.91,0,0,0-.641-1.441,2.313,2.313,0,0,0-1.6-.564h-5.255a2.31,2.31,0,0,0-1.618.577h0a1.814,1.814,0,0,0-.641,1.427Z" transform="translate(-207.525 -1205.275)"/>
    </g>
    <g id="그룹_3" data-name="그룹 3" transform="translate(91.062 1174.927)">
      <path id="패스_5" data-name="패스 5" d="M330,1175.817v20.791H318.947a4.622,4.622,0,0,1-3.219-1.2,3.709,3.709,0,0,1-1.329-2.876v-7.194a3.736,3.736,0,0,1,1.329-2.884,4.655,4.655,0,0,1,3.219-1.19h8.282v-5.448Zm-10.668,7.922a2.038,2.038,0,0,0-1.546.656,2.154,2.154,0,0,0-.622,1.547v6.013a2,2,0,0,0,.685,1.546,2.523,2.523,0,0,0,1.738.617h7.644v-10.342Q320.5,1183.734,319.33,1183.739Z" transform="translate(-314.239 -1175.657)"/>
      <path id="패스_6" data-name="패스 6" d="M329.428,1196.038H318.217a4.8,4.8,0,0,1-3.327-1.24,3.885,3.885,0,0,1-1.382-2.995v-7.194a3.917,3.917,0,0,1,1.382-3,4.829,4.829,0,0,1,3.326-1.232h8.122v-5.448h3.089ZM318.217,1180.7a4.516,4.516,0,0,0-3.112,1.15,3.562,3.562,0,0,0-1.276,2.765v7.194a3.532,3.532,0,0,0,1.275,2.757,4.487,4.487,0,0,0,3.113,1.157h10.89v-20.47h-2.448v5.448Zm8.442,12.854h-7.8a2.681,2.681,0,0,1-1.845-.658,2.17,2.17,0,0,1-.739-1.666v-6.014a2.314,2.314,0,0,1,.667-1.658,2.2,2.2,0,0,1,1.661-.705c.884,0,3.734.012,7.9.038h.159Zm-8.06-10.38a1.866,1.866,0,0,0-1.43.606,2,2,0,0,0-.578,1.437v6.014a1.836,1.836,0,0,0,.633,1.428,2.37,2.37,0,0,0,1.63.576h7.484v-10.023C322.259,1183.181,319.471,1183.169,318.6,1183.169Z" transform="translate(-313.508 -1174.927)"/>
    </g>
    <g id="그룹_4" data-name="그룹 4" transform="translate(110.656 1174.927)">
      <rect id="사각형_2" data-name="사각형 2" width="2.743" height="2.495" transform="translate(0.16 0.16)"/>
      <path id="패스_7" data-name="패스 7" d="M425.4,1177.743h-3.064v-2.816H425.4Zm-2.743-.32h2.423v-2.175h-2.423Z" transform="translate(-422.337 -1174.927)"/>
    </g>
    <g id="그룹_5" data-name="그룹 5" transform="translate(110.656 1180.375)">
      <rect id="사각형_3" data-name="사각형 3" width="2.743" height="15.343" transform="translate(0.16 0.16)"/>
      <path id="패스_8" data-name="패스 8" d="M425.4,1220.849h-3.064v-15.663H425.4Zm-2.743-.32h2.423v-15.023h-2.423Z" transform="translate(-422.337 -1205.185)"/>
    </g>
    <g id="그룹_6" data-name="그룹 6" transform="translate(116.765 1180.391)">
      <path id="패스_9" data-name="패스 9" d="M460.911,1206.165l6.786,12.544,6.787-12.544h3.144l-8.279,15.327h-3.3l-8.287-15.327Z" transform="translate(-457.496 -1206.005)"/>
      <path id="패스_10" data-name="패스 10" d="M468.221,1220.922h-3.489l-8.46-15.647h3.51l.046.084,6.645,12.284,6.691-12.368h3.509Zm-3.3-.321h3.107l8.106-15.006h-2.78l-6.883,12.72-6.882-12.72H456.81Z" transform="translate(-456.272 -1205.275)"/>
    </g>
    <g id="그룹_7" data-name="그룹 7" transform="translate(139.018 1180.375)">
      <path id="패스_11" data-name="패스 11" d="M585.308,1221.418a4.623,4.623,0,0,1-3.223-1.2,3.718,3.718,0,0,1-1.329-2.876v-7.194a3.746,3.746,0,0,1,1.329-2.884,4.657,4.657,0,0,1,3.223-1.19h11.045v15.343Zm8.278-12.832h-7.645a2.479,2.479,0,0,0-1.737.618,1.98,1.98,0,0,0-.682,1.547v6.013a1.988,1.988,0,0,0,.682,1.546,2.518,2.518,0,0,0,1.737.617h7.645Z" transform="translate(-580.596 -1205.915)"/>
      <path id="패스_12" data-name="패스 12" d="M595.783,1220.849H584.578a4.8,4.8,0,0,1-3.33-1.24,3.892,3.892,0,0,1-1.382-2.995v-7.194a3.925,3.925,0,0,1,1.382-3,4.833,4.833,0,0,1,3.33-1.232h11.205Zm-11.205-15.343a4.522,4.522,0,0,0-3.116,1.15,3.57,3.57,0,0,0-1.276,2.765v7.194a3.54,3.54,0,0,0,1.276,2.757,4.492,4.492,0,0,0,3.116,1.157h10.885v-15.023Zm8.438,12.854h-7.8a2.675,2.675,0,0,1-1.843-.658,2.137,2.137,0,0,1-.736-1.666v-6.013a2.145,2.145,0,0,1,.736-1.666,2.641,2.641,0,0,1,1.843-.659h7.8Zm-7.8-10.342a2.332,2.332,0,0,0-1.628.576,1.815,1.815,0,0,0-.63,1.429v6.013a1.832,1.832,0,0,0,.63,1.428,2.365,2.365,0,0,0,1.629.576H592.7v-10.022Z" transform="translate(-579.866 -1205.185)"/>
    </g>
    <g id="그룹_8" data-name="그룹 8" transform="translate(158.61 1174.927)">
      <path id="패스_13" data-name="패스 13" d="M689.572,1175.817h2.75v20.791h-2.75Z" transform="translate(-689.412 -1175.657)"/>
      <path id="패스_14" data-name="패스 14" d="M691.752,1196.038h-3.07v-21.111h3.07Zm-2.75-.32h2.429v-20.47H689Z" transform="translate(-688.682 -1174.927)"/>
    </g>
    <g id="그룹_9" data-name="그룹 9" transform="translate(165.178 1180.375)">
      <path id="패스_15" data-name="패스 15" d="M741.893,1217.344a3.719,3.719,0,0,1-1.321,2.876,4.577,4.577,0,0,1-3.194,1.2h-6.8a4.6,4.6,0,0,1-3.2-1.2,3.728,3.728,0,0,1-1.322-2.876v-11.269h2.768v10.69a1.985,1.985,0,0,0,.687,1.553,2.491,2.491,0,0,0,1.714.611h5.482a2.511,2.511,0,0,0,1.723-.611,2,2,0,0,0,.681-1.553v-10.69h2.783Z" transform="translate(-725.895 -1205.915)"/>
      <path id="패스_16" data-name="패스 16" d="M736.648,1220.849h-6.8a4.773,4.773,0,0,1-3.307-1.24,3.9,3.9,0,0,1-1.375-2.995v-11.429h3.089v10.85a1.82,1.82,0,0,0,.634,1.433,2.347,2.347,0,0,0,1.607.57h5.482a2.362,2.362,0,0,0,1.616-.571,1.83,1.83,0,0,0,.627-1.433v-10.85h3.1v11.429a3.9,3.9,0,0,1-1.374,3A4.752,4.752,0,0,1,736.648,1220.849Zm-11.163-15.343v11.109a3.549,3.549,0,0,0,1.269,2.757,4.462,4.462,0,0,0,3.092,1.157h6.8a4.441,4.441,0,0,0,3.086-1.156,3.543,3.543,0,0,0,1.268-2.758v-11.109H738.54v10.53a2.162,2.162,0,0,1-.734,1.672,2.673,2.673,0,0,1-1.83.652h-5.482a2.659,2.659,0,0,1-1.82-.651,2.152,2.152,0,0,1-.741-1.673v-10.53Z" transform="translate(-725.165 -1205.185)"/>
    </g>
    <g id="그룹_10" data-name="그룹 10" transform="translate(184.5 1180.391)">
      <path id="패스_17" data-name="패스 17" d="M844.451,1206.165a4.589,4.589,0,0,1,3.2,1.2,3.742,3.742,0,0,1,1.322,2.875v5.017H836.115v2.8a.9.9,0,0,0,.4.756,1.662,1.662,0,0,0,1.013.293h10.063v2.389H837.045a3.864,3.864,0,0,1-2.6-.912,2.784,2.784,0,0,1-1.073-2.216v-8.126a3.725,3.725,0,0,1,1.32-2.875,4.572,4.572,0,0,1,3.191-1.2Zm-7.637,3.114a1.982,1.982,0,0,0-.7,1.547v1.956H846.2v-1.956a2.055,2.055,0,0,0-.7-1.559,2.454,2.454,0,0,0-1.707-.606h-5.256A2.486,2.486,0,0,0,836.813,1209.279Z" transform="translate(-833.213 -1206.005)"/>
      <path id="패스_18" data-name="패스 18" d="M847.023,1220.922H836.315a4.039,4.039,0,0,1-2.7-.951,2.959,2.959,0,0,1-1.129-2.338v-8.126a3.9,3.9,0,0,1,1.373-2.995,4.749,4.749,0,0,1,3.3-1.238h6.566a4.779,4.779,0,0,1,3.306,1.239,3.911,3.911,0,0,1,1.375,2.995v5.177H835.545v2.639a.734.734,0,0,0,.336.626,1.512,1.512,0,0,0,.919.263h10.223Zm-9.868-15.327a4.438,4.438,0,0,0-3.084,1.156,3.589,3.589,0,0,0-1.268,2.757v8.126a2.619,2.619,0,0,0,1.016,2.094,3.727,3.727,0,0,0,2.5.874H846.7v-2.068h-9.9a1.817,1.817,0,0,1-1.107-.324,1.061,1.061,0,0,1-.469-.886v-2.96H848.08v-4.856a3.6,3.6,0,0,0-1.269-2.756,4.41,4.41,0,0,0-3.091-1.156Zm8.479,6.616H835.225V1210.1a2.142,2.142,0,0,1,.752-1.666,2.65,2.65,0,0,1,1.836-.659h5.256a2.625,2.625,0,0,1,1.814.647,2.228,2.228,0,0,1,.751,1.675Zm-10.089-.321h9.768v-1.8a1.892,1.892,0,0,0-.645-1.44,2.285,2.285,0,0,0-1.6-.565h-5.256a2.339,2.339,0,0,0-1.622.577h0a1.81,1.81,0,0,0-.644,1.427Z" transform="translate(-832.483 -1205.275)"/>
    </g>
  </g>
</svg>
