<svg xmlns="http://www.w3.org/2000/svg" width="147.478" height="19.68" viewBox="0 0 147.478 19.68">
  <g id="그룹_178" data-name="그룹 178" transform="translate(-42.217 -1174.927)">
    <g id="그룹_1" data-name="그룹 1" transform="translate(42.217 1180.005)">
      <path id="패스_1" data-name="패스 1" d="M52.316,1206.075a3.744,3.744,0,0,1,1.83.5,2.528,2.528,0,0,1,1.211,1.318,2.5,2.5,0,0,1,1.229-1.31,3.8,3.8,0,0,1,1.846-.512H63.4a4.268,4.268,0,0,1,2.981,1.124,3.509,3.509,0,0,1,1.234,2.688v10.491H65.019v-9.943a1.9,1.9,0,0,0-.635-1.463,2.286,2.286,0,0,0-1.592-.577H58.9a2.407,2.407,0,0,0-1.592.555,1.714,1.714,0,0,0-.669,1.383v10.045h-2.58v-10.045a1.735,1.735,0,0,0-.639-1.391,2.388,2.388,0,0,0-1.6-.547H47.942a2.339,2.339,0,0,0-1.607.577,1.872,1.872,0,0,0-.649,1.463c0,.475-.006,1.458-.023,2.933s-.018,2.838.008,4.07.026,2.214.016,2.94H43.107v-10.491a3.5,3.5,0,0,1,1.239-2.688,4.3,4.3,0,0,1,2.99-1.124Z" transform="translate(-42.958 -1205.926)" fill="#fff"/>
      <path id="패스_2" data-name="패스 2" d="M67.022,1219.787H64.129v-10.093a1.746,1.746,0,0,0-.586-1.353,2.125,2.125,0,0,0-1.49-.537H58.159a2.246,2.246,0,0,0-1.5.52,1.562,1.562,0,0,0-.615,1.269v10.194H53.169v-10.194a1.584,1.584,0,0,0-.586-1.277,2.247,2.247,0,0,0-1.505-.512H47.2a2.178,2.178,0,0,0-1.509.54,1.722,1.722,0,0,0-.6,1.35c0,.224,0,1.1-.023,2.935-.02,1.525-.017,2.855.008,4.066s.026,2.206.016,2.945l0,.147H42.217v-10.641a3.656,3.656,0,0,1,1.288-2.8,4.463,4.463,0,0,1,3.09-1.163h4.98a3.915,3.915,0,0,1,1.9.523,2.832,2.832,0,0,1,1.139,1.089,2.83,2.83,0,0,1,1.156-1.082,3.959,3.959,0,0,1,1.918-.531h4.965a4.435,4.435,0,0,1,3.082,1.163,3.666,3.666,0,0,1,1.283,2.8Zm-2.594-.3h2.3v-10.342a3.38,3.38,0,0,0-1.185-2.577,4.146,4.146,0,0,0-2.881-1.085H57.691a3.665,3.665,0,0,0-1.774.494,2.368,2.368,0,0,0-1.161,1.231l-.14.384-.14-.384a2.389,2.389,0,0,0-1.144-1.24,3.619,3.619,0,0,0-1.757-.485h-4.98a4.174,4.174,0,0,0-2.889,1.085,3.37,3.37,0,0,0-1.19,2.577v10.342H44.8c.007-.719,0-1.656-.018-2.788-.025-1.214-.027-2.547-.008-4.075.022-1.836.023-2.708.023-2.931a2.034,2.034,0,0,1,.7-1.574,2.5,2.5,0,0,1,1.707-.615h3.877a2.538,2.538,0,0,1,1.7.583,1.891,1.891,0,0,1,.691,1.5v9.9h2.281v-9.9a1.868,1.868,0,0,1,.723-1.5,2.565,2.565,0,0,1,1.687-.589h3.893a2.443,2.443,0,0,1,1.692.615,2.058,2.058,0,0,1,.684,1.574Z" transform="translate(-42.217 -1205.185)" fill="#fff"/>
    </g>
    <g id="그룹_2" data-name="그룹 2" transform="translate(69.962 1180.021)">
      <path id="패스_3" data-name="패스 3" d="M218.748,1206.165a4.263,4.263,0,0,1,2.976,1.116,3.465,3.465,0,0,1,1.231,2.681v4.677H210.981v2.61a.826.826,0,0,0,.375.7,1.525,1.525,0,0,0,.936.273h9.388v2.227h-9.835a3.608,3.608,0,0,1-2.427-.85,2.616,2.616,0,0,1-1-2.066v-7.575a3.49,3.49,0,0,1,1.232-2.681,4.282,4.282,0,0,1,2.982-1.116Zm-7.12,2.9a1.85,1.85,0,0,0-.647,1.442v1.823h9.4v-1.823a1.933,1.933,0,0,0-.647-1.454,2.3,2.3,0,0,0-1.6-.565h-4.9A2.309,2.309,0,0,0,211.628,1209.068Z" transform="translate(-208.266 -1206.016)" fill="#fff"/>
      <path id="패스_4" data-name="패스 4" d="M221.089,1219.862H211.1a3.77,3.77,0,0,1-2.525-.886,2.775,2.775,0,0,1-1.055-2.179v-7.575a3.646,3.646,0,0,1,1.282-2.792,4.457,4.457,0,0,1,3.082-1.155h6.119a4.426,4.426,0,0,1,3.077,1.155,3.625,3.625,0,0,1,1.28,2.791v4.826H210.39v2.461a.677.677,0,0,0,.312.583,1.386,1.386,0,0,0,.85.246h9.537Zm-9.2-14.288a4.113,4.113,0,0,0-2.882,1.078,3.359,3.359,0,0,0-1.183,2.57v7.575a2.457,2.457,0,0,0,.95,1.952,3.479,3.479,0,0,0,2.33.814h9.685v-1.928h-9.239a1.673,1.673,0,0,1-1.026-.3.967.967,0,0,1-.435-.824v-2.76h11.975v-4.527a3.3,3.3,0,0,0-1.181-2.569,4.136,4.136,0,0,0-2.877-1.078Zm7.9,6.168h-9.7v-1.973a2,2,0,0,1,.7-1.553,2.472,2.472,0,0,1,1.708-.615h4.9a2.445,2.445,0,0,1,1.7.6,2.093,2.093,0,0,1,.7,1.561Zm-9.4-.3h9.1v-1.674a1.781,1.781,0,0,0-.6-1.343,2.156,2.156,0,0,0-1.5-.526h-4.9a2.154,2.154,0,0,0-1.509.538h0a1.691,1.691,0,0,0-.6,1.33Z" transform="translate(-207.525 -1205.275)" fill="#fff"/>
    </g>
    <g id="그룹_3" data-name="그룹 3" transform="translate(87.751 1174.927)">
      <path id="패스_5" data-name="패스 5" d="M328.941,1175.817V1195.2h-10.3a4.309,4.309,0,0,1-3-1.117,3.457,3.457,0,0,1-1.239-2.681v-6.707a3.483,3.483,0,0,1,1.239-2.689,4.34,4.34,0,0,1,3-1.11h7.721v-5.079ZM319,1183.2a1.9,1.9,0,0,0-1.441.612,2.008,2.008,0,0,0-.58,1.442v5.606a1.861,1.861,0,0,0,.639,1.441,2.351,2.351,0,0,0,1.62.576h7.126v-9.641Q320.084,1183.2,319,1183.2Z" transform="translate(-314.249 -1175.668)" fill="#fff"/>
      <path id="패스_6" data-name="패스 6" d="M328.349,1194.608H317.9a4.473,4.473,0,0,1-3.1-1.156,3.621,3.621,0,0,1-1.288-2.792v-6.707a3.651,3.651,0,0,1,1.289-2.8,4.5,4.5,0,0,1,3.1-1.148h7.571v-5.079h2.88ZM317.9,1180.3a4.209,4.209,0,0,0-2.9,1.072,3.32,3.32,0,0,0-1.189,2.577v6.707a3.293,3.293,0,0,0,1.189,2.57,4.183,4.183,0,0,0,2.9,1.079H328.05v-19.083h-2.282v5.078Zm7.87,11.982h-7.275a2.5,2.5,0,0,1-1.72-.614,2.022,2.022,0,0,1-.689-1.553v-5.606a2.157,2.157,0,0,1,.621-1.545,2.049,2.049,0,0,1,1.549-.657c.824,0,3.481.011,7.365.035h.148Zm-7.514-9.676a1.74,1.74,0,0,0-1.333.565,1.869,1.869,0,0,0-.539,1.339v5.606a1.712,1.712,0,0,0,.59,1.331,2.209,2.209,0,0,0,1.52.537h6.977v-9.344C321.666,1182.621,319.067,1182.61,318.254,1182.61Z" transform="translate(-313.508 -1174.927)" fill="#fff"/>
    </g>
    <g id="그룹_4" data-name="그룹 4" transform="translate(106.017 1174.927)">
      <rect id="사각형_2" data-name="사각형 2" width="2.557" height="2.326" transform="translate(0.149 0.149)" fill="#fff"/>
      <path id="패스_7" data-name="패스 7" d="M425.193,1177.552h-2.856v-2.625h2.856Zm-2.557-.3h2.258v-2.027h-2.258Z" transform="translate(-422.337 -1174.927)" fill="#fff"/>
    </g>
    <g id="그룹_5" data-name="그룹 5" transform="translate(106.017 1180.005)">
      <rect id="사각형_3" data-name="사각형 3" width="2.557" height="14.303" transform="translate(0.149 0.149)" fill="#fff"/>
      <path id="패스_8" data-name="패스 8" d="M425.193,1219.787h-2.856v-14.6h2.856Zm-2.557-.3h2.258v-14h-2.258Z" transform="translate(-422.337 -1205.185)" fill="#fff"/>
    </g>
    <g id="그룹_6" data-name="그룹 6" transform="translate(111.712 1180.021)">
      <path id="패스_9" data-name="패스 9" d="M460.7,1206.165l6.326,11.694,6.327-11.694h2.931l-7.718,14.288H465.49l-7.725-14.288Z" transform="translate(-457.514 -1206.016)" fill="#fff"/>
      <path id="패스_10" data-name="패스 10" d="M467.411,1219.862h-3.253l-7.887-14.587h3.272l.042.078,6.195,11.451,6.238-11.529h3.271Zm-3.074-.3h2.9l7.557-13.989H472.2l-6.416,11.858-6.415-11.858h-2.593Z" transform="translate(-456.272 -1205.275)" fill="#fff"/>
    </g>
    <g id="그룹_7" data-name="그룹 7" transform="translate(132.457 1180.005)">
      <path id="패스_11" data-name="패스 11" d="M585,1220.378a4.309,4.309,0,0,1-3-1.117,3.466,3.466,0,0,1-1.239-2.681v-6.707a3.492,3.492,0,0,1,1.239-2.688,4.34,4.34,0,0,1,3-1.11h10.3v14.3Zm7.717-11.962H585.59a2.311,2.311,0,0,0-1.619.576,1.846,1.846,0,0,0-.636,1.442v5.606a1.854,1.854,0,0,0,.636,1.441,2.348,2.348,0,0,0,1.619.576h7.126Z" transform="translate(-580.607 -1205.926)" fill="#fff"/>
      <path id="패스_12" data-name="패스 12" d="M594.7,1219.787H584.259a4.477,4.477,0,0,1-3.1-1.155,3.628,3.628,0,0,1-1.288-2.792v-6.707a3.658,3.658,0,0,1,1.288-2.8,4.506,4.506,0,0,1,3.1-1.148H594.7Zm-10.446-14.3a4.216,4.216,0,0,0-2.9,1.072,3.329,3.329,0,0,0-1.189,2.577v6.707a3.3,3.3,0,0,0,1.189,2.57,4.187,4.187,0,0,0,2.9,1.079h10.147v-14Zm7.866,11.982h-7.276a2.493,2.493,0,0,1-1.718-.613,1.992,1.992,0,0,1-.686-1.553v-5.606a2,2,0,0,1,.686-1.553,2.463,2.463,0,0,1,1.718-.615h7.276Zm-7.276-9.641a2.174,2.174,0,0,0-1.518.537,1.692,1.692,0,0,0-.588,1.332v5.606a1.708,1.708,0,0,0,.587,1.331,2.2,2.2,0,0,0,1.519.537h6.977v-9.342Z" transform="translate(-579.866 -1205.185)" fill="#fff"/>
    </g>
    <g id="그룹_8" data-name="그룹 8" transform="translate(150.72 1174.927)">
      <path id="패스_13" data-name="패스 13" d="M689.572,1175.817h2.563V1195.2h-2.563Z" transform="translate(-689.423 -1175.668)" fill="#fff"/>
      <path id="패스_14" data-name="패스 14" d="M691.544,1194.608h-2.862v-19.68h2.862Zm-2.563-.3h2.265v-19.083h-2.265Z" transform="translate(-688.682 -1174.927)" fill="#fff"/>
    </g>
    <g id="그룹_9" data-name="그룹 9" transform="translate(156.844 1180.005)">
      <path id="패스_15" data-name="패스 15" d="M740.819,1216.58a3.467,3.467,0,0,1-1.231,2.681,4.266,4.266,0,0,1-2.977,1.117H730.27a4.284,4.284,0,0,1-2.982-1.117,3.476,3.476,0,0,1-1.233-2.681v-10.505h2.58v9.966a1.85,1.85,0,0,0,.641,1.448,2.322,2.322,0,0,0,1.6.57h5.11a2.341,2.341,0,0,0,1.606-.57,1.86,1.86,0,0,0,.635-1.448v-9.966h2.594Z" transform="translate(-725.906 -1205.926)" fill="#fff"/>
      <path id="패스_16" data-name="패스 16" d="M735.87,1219.787h-6.341a4.45,4.45,0,0,1-3.083-1.155,3.638,3.638,0,0,1-1.282-2.792v-10.655h2.879V1215.3a1.7,1.7,0,0,0,.591,1.336,2.188,2.188,0,0,0,1.5.531h5.11a2.2,2.2,0,0,0,1.507-.532,1.706,1.706,0,0,0,.584-1.336v-10.115h2.893v10.655a3.632,3.632,0,0,1-1.281,2.792A4.429,4.429,0,0,1,735.87,1219.787Zm-10.406-14.3v10.356a3.309,3.309,0,0,0,1.183,2.57,4.159,4.159,0,0,0,2.882,1.079h6.341a4.14,4.14,0,0,0,2.877-1.078,3.3,3.3,0,0,0,1.182-2.571v-10.356h-2.3v9.816a2.015,2.015,0,0,1-.684,1.558,2.491,2.491,0,0,1-1.706.608h-5.11a2.478,2.478,0,0,1-1.7-.607,2.007,2.007,0,0,1-.691-1.559v-9.816Z" transform="translate(-725.165 -1205.185)" fill="#fff"/>
    </g>
    <g id="그룹_10" data-name="그룹 10" transform="translate(174.856 1180.021)">
      <path id="패스_17" data-name="패스 17" d="M843.7,1206.165a4.279,4.279,0,0,1,2.981,1.116,3.488,3.488,0,0,1,1.232,2.681v4.677H835.929v2.61a.836.836,0,0,0,.375.7,1.548,1.548,0,0,0,.944.273h9.381v2.227H836.8a3.6,3.6,0,0,1-2.422-.85,2.6,2.6,0,0,1-1-2.066v-7.575a3.473,3.473,0,0,1,1.231-2.681,4.263,4.263,0,0,1,2.975-1.116Zm-7.12,2.9a1.848,1.848,0,0,0-.651,1.442v1.823h9.4v-1.823a1.916,1.916,0,0,0-.651-1.454,2.287,2.287,0,0,0-1.592-.565h-4.9A2.317,2.317,0,0,0,836.58,1209.068Z" transform="translate(-833.224 -1206.016)" fill="#fff"/>
      <path id="패스_18" data-name="패스 18" d="M846.038,1219.862h-9.983a3.765,3.765,0,0,1-2.52-.886,2.759,2.759,0,0,1-1.053-2.179v-7.575a3.633,3.633,0,0,1,1.28-2.792,4.427,4.427,0,0,1,3.075-1.154h6.121a4.455,4.455,0,0,1,3.081,1.155,3.645,3.645,0,0,1,1.281,2.792v4.826H835.338v2.461a.684.684,0,0,0,.313.583,1.411,1.411,0,0,0,.857.245h9.53Zm-9.2-14.288a4.139,4.139,0,0,0-2.875,1.077,3.346,3.346,0,0,0-1.182,2.57v7.575a2.442,2.442,0,0,0,.947,1.951,3.475,3.475,0,0,0,2.326.815h9.684v-1.928h-9.231a1.7,1.7,0,0,1-1.032-.3.989.989,0,0,1-.437-.826v-2.76h11.984v-4.527a3.358,3.358,0,0,0-1.183-2.57,4.111,4.111,0,0,0-2.881-1.078Zm7.9,6.168h-9.7v-1.973a2,2,0,0,1,.7-1.553,2.471,2.471,0,0,1,1.711-.615h4.9a2.448,2.448,0,0,1,1.691.6,2.077,2.077,0,0,1,.7,1.562Zm-9.4-.3h9.106v-1.674a1.764,1.764,0,0,0-.6-1.343,2.129,2.129,0,0,0-1.491-.526h-4.9a2.181,2.181,0,0,0-1.512.538h0a1.687,1.687,0,0,0-.6,1.33Z" transform="translate(-832.483 -1205.275)" fill="#fff"/>
    </g>
  </g>
</svg>
