<svg xmlns="http://www.w3.org/2000/svg" width="32" height="32" viewBox="0 0 32 32">
    <g transform="translate(10 -3.987)">
        <circle data-name="타원 1" cx="16" cy="16" r="16" transform="translate(-10 3.987)" style="fill:#3e6def"/>
        <g data-name="타원 2" transform="translate(-8 5.987)" style="fill:transparent;stroke:#fff">
            <circle cx="14" cy="14" r="14" style="stroke:none"/>
            <circle cx="14" cy="14" r="13.5" style="fill:none"/>
        </g>
        <path data-name="합치기 2" d="M-1041.089-467.013v-3.667h-5.129v3.667h-1.579v-3.667h-5.143q0 .253.008.495c.013.74.016 2.736.01 3.172h-1.579v-3.667h-2.5v-1.333h2.5v-2.71a2.084 2.084 0 0 1 .758-1.615 2.662 2.662 0 0 1 1.83-.676h3.049a2.328 2.328 0 0 1 1.12.3 1.531 1.531 0 0 1 .741.792 1.518 1.518 0 0 1 .752-.787 2.372 2.372 0 0 1 1.13-.307h3.039a2.641 2.641 0 0 1 1.825.676 2.091 2.091 0 0 1 .755 1.615v2.71h2.5v1.333h-2.5v3.667zm0-5v-2.38a1.131 1.131 0 0 0-.389-.879 1.415 1.415 0 0 0-.974-.346h-2.383a1.5 1.5 0 0 0-.974.333 1.026 1.026 0 0 0-.409.832v2.441zm-6.708 0v-2.441a1.034 1.034 0 0 0-.391-.836 1.483 1.483 0 0 0-.98-.328h-2.373a1.449 1.449 0 0 0-.984.346 1.117 1.117 0 0 0-.4.879c0 .285 0 .876-.014 1.762q0 .315-.006.618z" transform="translate(1053 492)" style="fill:#fff"/>
    </g>
</svg>
