<svg xmlns="http://www.w3.org/2000/svg" width="150" height="20" viewBox="0 0 150 20">
    <path d="M139.393 20a3.551 3.551 0 0 1-2.372-.833 2.594 2.594 0 0 1-.991-2.05V9.991a3.42 3.42 0 0 1 1.205-2.626 4.17 4.17 0 0 1 2.895-1.085h5.762a4.193 4.193 0 0 1 2.9 1.086A3.426 3.426 0 0 1 150 9.991v4.54h-11.281v2.314a.643.643 0 0 0 .295.549 1.328 1.328 0 0 0 .806.231h8.972V20zm-.108-10.745a1.586 1.586 0 0 0-.565 1.251v1.574h8.572v-1.573a1.656 1.656 0 0 0-.566-1.264 2.006 2.006 0 0 0-1.4-.5h-4.613a2.053 2.053 0 0 0-1.428.512zM78.887 20 71.463 6.28h3.081l.04.074 5.832 10.77L86.288 6.28h3.08L81.95 20zm-47.062 0a3.551 3.551 0 0 1-2.376-.833 2.61 2.61 0 0 1-.994-2.05V9.991a3.429 3.429 0 0 1 1.206-2.625 4.2 4.2 0 0 1 2.9-1.086h5.76a4.17 4.17 0 0 1 2.9 1.086 3.41 3.41 0 0 1 1.205 2.625v4.54H31.152v2.314a.635.635 0 0 0 .294.548 1.306 1.306 0 0 0 .8.231h8.979V20zm-.111-10.745a1.59 1.59 0 0 0-.562 1.252v1.574h8.566v-1.574a1.676 1.676 0 0 0-.563-1.264 2.031 2.031 0 0 0-1.409-.5h-4.611a2.03 2.03 0 0 0-1.421.512zM123.183 20a4.193 4.193 0 0 1-2.9-1.086 3.422 3.422 0 0 1-1.207-2.626V6.266h2.71v9.514a1.594 1.594 0 0 0 .557 1.256 2.058 2.058 0 0 0 1.41.5h4.811a2.073 2.073 0 0 0 1.419-.5 1.6 1.6 0 0 0 .55-1.256V6.266h2.724v10.021a3.415 3.415 0 0 1-1.206 2.626 4.173 4.173 0 0 1-2.9 1.086zm-12.661 0V0h2.694v20zm-13.839 0a4.217 4.217 0 0 1-2.923-1.086 3.411 3.411 0 0 1-1.213-2.626V9.979a3.442 3.442 0 0 1 1.213-2.633 4.247 4.247 0 0 1 2.923-1.08h9.834V20zm-.874-10.745a1.592 1.592 0 0 0-.553 1.252v5.273a1.607 1.607 0 0 0 .553 1.252 2.074 2.074 0 0 0 1.43.5h6.568V8.749h-6.568a2.05 2.05 0 0 0-1.43.506zM64.987 20V6.266h2.689V20zm-14.156 0a4.038 4.038 0 0 1-2.92-1.175 3.807 3.807 0 0 1-1.211-2.837V9.173a3.84 3.84 0 0 1 1.213-2.845 4.062 4.062 0 0 1 2.919-1.167h7.127V0h2.711v20zm-.92-11.618a1.983 1.983 0 0 0-.511 1.361v5.7a1.805 1.805 0 0 0 .556 1.353 1.991 1.991 0 0 0 1.43.544h6.568V7.843c-3.58-.023-6.026-.034-6.792-.034a1.584 1.584 0 0 0-1.251.573zM20.628 20v-9.494a1.64 1.64 0 0 0-.552-1.272 2 2 0 0 0-1.4-.506h-3.668a2.115 2.115 0 0 0-1.409.49 1.47 1.47 0 0 0-.579 1.193V20h-2.71v-9.588a1.491 1.491 0 0 0-.551-1.2 2.117 2.117 0 0 0-1.417-.481h-3.65a2.054 2.054 0 0 0-1.421.508 1.62 1.62 0 0 0-.563 1.27c0 .211 0 1.032-.021 2.761-.019 1.433-.017 2.685.007 3.824s.024 2.074.014 2.769v.139H0V9.991a3.437 3.437 0 0 1 1.213-2.632 4.207 4.207 0 0 1 2.908-1.093H8.81a3.689 3.689 0 0 1 1.79.491 2.669 2.669 0 0 1 1.073 1.025 2.667 2.667 0 0 1 1.089-1.018 3.725 3.725 0 0 1 1.805-.5h4.675a4.178 4.178 0 0 1 2.9 1.093 3.449 3.449 0 0 1 1.209 2.632V20zM64.987 2.469V0h2.689v2.469z" style="fill:#3e6def"/>
</svg>
